# xmcd CD database file
#
# Track frame offsets:
#	182
#	21652
#	36327
#	51062
#	64275
#	96332
#	115932
#	141810
#	159947
#	182522
#	207085
#	225415
#
# Disc length: 3222 seconds
#
# Revision: 1
# Processed by: cddbd v1.5.1PL0 Copyright (c) Steve Scherf et al.
# Submitted via: CDex 1.51
#
DISCID=a20c940c
DTITLE=Various Artist - 12 Salsa Cocktail Mixes 
DYEAR=1900
DGENRE=Salsa
TTITLE0=Los Sitios Entero - Ng La Banda
TTITLE1=Taka-Taka-Ta - Irakere
TTITLE2=Mi Chiquita - Benny More
TTITLE3=Pare Cochero - Orquestra Aragon
TTITLE4=Cogel El Cameron - La Origina De Manzanillo
TTITLE5=Se Muere La Tia - Los Van Van
TTITLE6=Lo Que Me Paso En La - Adalberto Alvarez and Su Son
TTITLE7=Yo Soy El Punto Cubana - Cellina Gonzalez
TTITLE8=Longina - Marlena Burke
TTITLE9=Yo No Quiero Que Seas Celosa - Reve Y Su Charangon
TTITLE10=La Chica Mamey - Orquesta Ritmo Oriental
TTITLE11=Mi Son, Mi Son, Mi Son, - Miguelito Cuni Con Chappottin
EXTD=
EXTT0=
EXTT1=
EXTT2=
EXTT3=
EXTT4=
EXTT5=
EXTT6=
EXTT7=
EXTT8=
EXTT9=
EXTT10=
EXTT11=
PLAYORDER=
